<?xml version="1.0" encoding="UTF-8"?>
<svg width="211px" height="89px" viewBox="0 0 211 89" version="1.1" xmlns="http://www.w3.org/2000/svg" xmlns:xlink="http://www.w3.org/1999/xlink">
    <!-- Generator: Sketch 54.1 (76490) - https://sketchapp.com -->
    <title>Coach_2015_HC_MD_blk</title>
    <desc>Created with Sketch.</desc>
    <defs>
        <polygon id="path-1" points="0.654979167 0.377560976 78.5996979 0.377560976 78.5996979 63.5268293 0.654979167 63.5268293"></polygon>
        <polygon id="path-3" points="0.01978125 1.46195122 29.8938646 1.46195122 29.8938646 76.697561 0.01978125 76.697561"></polygon>
    </defs>
    <g id="Logo-Guidelines" stroke="none" stroke-width="1" fill="none" fill-rule="evenodd">
        <g id="Guidelines---Logos" transform="translate(-504.000000, -2187.000000)">
            <g id="Coach-Lockup" transform="translate(504.000000, 2071.000000)">
                <g id="Coach_2015_HC_MD_blk" transform="translate(0.000000, 116.000000)">
                    <path d="M47.0683854,50.8334146 L48.978375,47.6570732 C48.4332917,47.4463415 46.5540729,47.2465854 45.285875,47.5846341 L47.0683854,50.8334146" id="Fill-1" fill="#1A1919"></path>
                    <path d="M58.3195208,48.9521951 C56.8732917,44.054878 57.1985833,39.4890244 57.1985833,39.3946341 C55.7523542,39.7085366 51.9235833,40.0729268 50.6268125,40.1190244 L50.5630729,45.9931707 C53.0357292,46.3158537 57.8227917,48.7041463 58.3195208,48.9521951" id="Fill-2" fill="#1A1919"></path>
                    <path d="M48.8530937,45.7758537 L48.9563958,40.1036585 C47.8332604,40.0904878 46.6727604,40.0685366 45.285875,39.9653659 L45.285875,45.745122 C45.285875,45.745122 46.4595625,45.655122 46.9562917,45.6682927 C47.4376354,45.6814634 48.8530937,45.7758537 48.8530937,45.7758537" id="Fill-3" fill="#1A1919"></path>
                    <path d="M76.091875,57.3287805 C85.428625,44.4368293 68.7508333,36.295122 63.5571562,38.0446341 C62.8142604,38.2926829 58.9041667,38.9534146 58.9041667,39.0017073 C58.7019583,40.7468293 58.6250312,44.8670732 60.2514896,49.9378049 C65.7418854,53.0460976 73.7445,56.905122 76.091875,57.3287805" id="Fill-4" fill="#1A1919"></path>
                    <g id="Group-8" transform="translate(13.187500, 38.512195)" fill="#1A1919">
                        <path d="M51.8026979,23.7512195 C50.5059271,22.3792683 48.7519896,18.9921951 43.83525,21.3080488 C43.6813958,23.6831707 44.0066875,25.4019512 47.0815729,28.2973171 C47.7519375,28.9229268 48.0728333,30.7756098 47.9827187,31.6997561 C47.8156771,33.2956098 43.3297292,36.0658537 42.2219792,37.1502439 C40.0504375,38.9173171 40.380125,40.1553659 40.380125,40.1553659 C40.9801562,42.102439 40.0746146,43.7817073 40.2086875,45.1404878 C40.2768229,45.8407317 40.3251771,46.6507317 40.5955208,47.3114634 C40.6680521,47.4914634 40.7933333,47.5990244 40.9296042,47.5595122 C41.8527292,47.285122 44.3297812,45.6870732 44.2484583,43.6543902 C44.2220833,43.0704878 42.9077292,41.5097561 42.9516875,41.3692683 C43.1011458,40.8204878 43.3934687,41.1146341 43.8836042,40.374878 C44.0924062,40.0609756 44.0682292,39.4485366 44.0924062,39.2334146 C44.2748333,37.5563415 49.3124583,33.2143902 51.7939062,32.3319512 C53.7346667,31.6404878 52.2884375,29.9392683 52.2884375,29.9392683 C49.2663021,27.2195122 51.2795937,24.4514634 51.8026979,23.7512195" id="Fill-5"></path>
                        <path d="M30.5840104,9.33804878 C28.3091667,9.70682927 22.9088854,11.304878 17.1217708,16.1495122 C17.0536354,16.2241463 16.8953854,16.0178049 16.8953854,16.0178049 C16.8953854,16.0178049 16.8778021,15.8158537 16.9283542,15.7258537 C16.9833021,15.6490244 21.5725521,9.47414634 30.3949896,7.40853659 L30.463125,1.28634146 C28.3091667,1.08439024 27.0387708,0.724390244 26.1925729,0.390731707 C24.0891667,2.48268293 16.1810625,9 8.64001042,12.0226829 C7.51028125,15.2934146 10.3477917,17.8946341 10.2137187,19.0580488 C10.1236042,19.8856098 2.29022917,25.9595122 1.69679167,27.1097561 C1.0154375,28.4378049 2.33638542,31.8643902 2.4924375,34.7531707 C2.50122917,34.92 2.6375,38.8273171 2.6375,38.8273171 C2.71882292,40.8797561 4.16944792,41.8653659 4.16944792,41.8653659 C4.98707292,43.3404878 7.7938125,46.4268293 9.14992708,46.4180488 C9.14992708,46.4180488 9.23125,46.4114634 9.26641667,46.3939024 C9.943375,46.0207317 10.3697708,40.3134146 8.21801042,41.1717073 L8.20921875,41.1760976 L8.20482292,41.1760976 C7.02014583,41.8236585 6.61792708,40.9280488 6.87947917,40.194878 C7.00476042,39.8414634 6.63551042,39.2202439 6.31241667,39.1521951 C4.53869792,38.7702439 4.51452083,31.0917073 5.17389583,29.1885366 C5.9475625,26.9253659 6.94321875,26.9758537 10.1983333,25.5139024 C14.5150417,23.5756098 15.0227604,23.705122 17.2294687,22.734878 C18.7658125,22.0236585 21.4099062,21.1017073 21.8099271,17.9802439 C21.8099271,17.8529268 21.7967396,17.7892683 21.8099271,17.7278049 C21.8187187,17.6729268 21.9725729,17.8704878 21.9725729,17.8704878 C21.9725729,17.8704878 24.4100625,20.4936585 18.1438021,23.8982927 C18.4778854,25.4634146 19.3680417,28.764878 19.35925,29.8360976 C19.3416667,32.2331707 20.2977604,35.7739024 20.387875,36.9921951 C20.5944792,39.6197561 20.6889896,43.452439 19.9724687,44.6004878 C19.4559583,45.4192683 18.5723958,45.6892683 17.9767604,46.6902439 C17.697625,47.16 16.72175,48.6921951 16.6184479,49.6953659 C16.4865729,51.1046341 21.68025,49.5614634 22.023125,48.365122 C22.1066458,48.077561 21.4230937,46.9207317 21.6714583,46.512439 C21.9220208,46.1326829 22.5176562,46.3280488 22.8825104,46.097561 C24.6650208,44.945122 23.1484583,44.0143902 23.0803229,42.8509756 C23.0033958,41.4921951 22.4011667,36.8143902 23.1484583,34.7619512 C23.4100104,34.0331707 24.3089583,32.9707317 23.552875,29.7109756 C23.3286875,28.7604878 24.9991042,23.67 24.8826146,21.492439 C26.1881771,21.9007317 28.9311771,22.59 33.2500833,22.32 C33.2500833,20.3773171 33.2764583,19.6309756 33.1204062,13.8863415 L30.5840104,9.33804878" id="Fill-7"></path>
                    </g>
                    <path d="M59.1920937,57.68 C60.1262083,57.5987805 61.0757083,57.6931707 62.2471979,58.2990244 C60.4361146,55.3531707 59.4448542,53.5904878 58.7195417,51.254878 C57.5524479,50.4273171 51.7829167,47.5890244 50.5235104,47.8502439 L47.9387604,52.2360976 C47.9519479,57.9719512 47.9321667,58.8478049 47.9387604,60.7729268 C53.1632083,60.4129268 56.0798437,57.9478049 59.1920937,57.68" id="Fill-9" fill="#1A1919"></path>
                    <path d="M77.7051458,57.7414634 C78.1645104,57.8819512 80.0964792,58.2639024 83.7120521,58.7314634 C85.0637708,46.5156098 80.3602292,42.434878 76.2347396,41.6073171 C81.4328125,47.1258537 81.7207396,51.3273171 77.7051458,57.7414634" id="Fill-10" fill="#1A1919"></path>
                    <path d="M10.9148542,26.3314634 C10.9741979,25.4314634 11.4819167,24.2834146 12.0401875,23.2143902 C10.4335104,22.9970732 8.82903125,23.407561 8.32570833,23.6182927 C8.79826042,24.3514634 9.6136875,25.6202439 10.0598646,28.6802439 C10.0686563,28.6692683 10.0510729,28.6934146 10.0598646,28.6802439 C10.5961562,27.7078049 10.8423229,27.4685366 10.9148542,26.3314634" id="Fill-11" fill="#1A1919"></path>
                    <path d="M7.09707292,36.3258537 C6.93882292,35.8363415 7.47071875,34.9231707 7.28609375,34.7256098 C6.8970625,34.297561 7.70369792,33.0507317 7.938875,32.8092683 C7.72128125,32.8268293 6.84870833,32.8356098 6.78057292,32.822439 C6.60913542,32.8004878 6.22230208,29.2465854 6.22230208,29.2465854 C6.22230208,29.2465854 8.63121875,28.6253659 8.65319792,28.6341463 C8.66858333,28.6429268 8.40263542,28.0941463 8.23119792,27.6441463 C6.8970625,27.5541463 4.68595833,27.9953659 3.09246875,28.6604878 C2.61991667,31.6217073 4.07273958,32.8619512 4.07273958,32.8619512 C5.11894792,33.9507317 5.82667708,37.5529268 6.09702083,38.2202439 C6.82672917,38.5034146 8.8488125,38.4814634 9.41147917,38.3629268 C8.18504167,38.2685366 7.35642708,37.0941463 7.09707292,36.3258537" id="Fill-12" fill="#1A1919"></path>
                    <path d="M22.0582917,32.4536585 C20.9461458,33.4195122 19.6427812,33.037561 18.3899687,34.0670732 C18.2339167,36.4663415 15.0051771,39.9302439 14.2666771,47.2619512 C14.2293125,47.635122 17.5261875,43.6817073 21.68025,41.0892683 C22.6605208,37.5858537 22.7660208,34.1219512 22.0582917,32.4536585" id="Fill-13" fill="#1A1919"></path>
                    <path d="M6.35197917,39.9302439 C6.356375,39.9609756 6.51022917,41.5260976 6.93882292,42.2768293 C8.27955208,44.6036585 11.0313437,43.2404878 11.2181667,41.462439 C11.2445417,41.2341463 11.9061146,40.8456098 12.0050208,40.4109756 C12.1368958,39.8490244 11.842375,39.9346341 11.7434687,39.4385366 C11.7390729,39.4429268 8.23119792,40.5865854 6.35197917,39.9302439" id="Fill-14" fill="#1A1919"></path>
                    <path d="M4.4705625,25.1878049 C4.16725,25.2909756 2.8089375,26.3314634 2.78476042,26.8978049 C2.80454167,27.1590244 2.79355208,26.6629268 2.79355208,27.0778049 C3.15840625,26.9658537 6.50583333,26.0526829 7.91030208,26.0241463 C7.43775,23.8882927 4.853,21.284878 3.67271875,20.3036585 C3.37160417,20.0512195 4.81783333,25.0802439 4.4705625,25.1878049" id="Fill-15" fill="#1A1919"></path>
                    <path d="M14.8645104,19.8053659 C14.7524167,19.6297561 14.6974687,19.484878 14.5809792,19.2280488 C8.96969792,19.0392683 6.74980208,21.7239024 6.74980208,21.7239024 L7.40697917,22.652439 C7.40697917,22.652439 9.95216667,21.5460976 12.4687812,22.0136585 C12.7742917,21.0543902 14.2842604,19.9568293 14.8645104,19.8053659" id="Fill-16" fill="#1A1919"></path>
                    <path d="M21.2780312,57.535122 C21.3285833,57.3331707 21.3417708,57.0082927 21.0450521,56.582439 C18.6493229,53.0460976 20.2845729,48.8490244 21.5439792,43.0012195 C20.1395104,43.8836585 15.3326667,47.6614634 14.2666771,49.2529268 C14.1985417,50.5941463 14.1348021,52.2009756 16.7107604,55.88 C17.3503542,57.9543902 6.12339583,59.9278049 4.54309375,62.5904878 C4.02878125,63.4509756 3.88811458,65.474878 3.560625,66.464878 C2.99795833,67.957561 2.17373958,70.8902439 1.70558333,71.3995122 C1.49678125,71.6365854 0.762677083,76.0092683 0.762677083,76.0092683 C1.08796875,77.4360976 0.881364583,81.3302439 0.881364583,81.3302439 C2.0704375,81.1590244 5.29917708,80.0043902 4.35407292,76.904878 C4.27714583,76.6436585 3.98921875,76.3780488 3.84415625,76.2836585 C3.613375,75.9631707 5.565125,75.7985366 4.35407292,74.1060976 C2.93421875,71.1295122 6.42451042,66.302439 6.42451042,66.302439 C6.69045833,66.1707317 7.0553125,64.34 8.26196875,63.9097561 C8.61363542,63.7736585 13.5281771,63.1173171 15.1568333,62.8890244 C16.0228125,62.0592683 21.179125,57.9302439 21.2780312,57.535122" id="Fill-17" fill="#1A1919"></path>
                    <path d="M59.0118646,67.8126829 C55.0622083,64.2741463 55.5589375,60.5139024 55.5545417,60.4721951 C54.0731458,61.0165854 53.0950729,61.4578049 51.1894792,61.8134146 C51.3960833,64.3685366 53.7390625,66.0807317 54.3918437,67.2595122 C54.8248333,68.03 54.8050521,68.6314634 54.649,69.505122 C54.49075,70.3678049 51.0993646,73.5990244 49.9784271,74.6373171 C47.7761146,76.3341463 48.1167917,77.5107317 48.1167917,77.5107317 C48.4025208,78.667561 48.1409687,79.8156098 48.1409687,79.8156098 C48.0376667,80.6146341 47.9387604,81.5695122 47.9387604,82.285122 C47.9321667,82.9546341 48.2135,84.5878049 48.6706667,84.5878049 C50.0443646,84.5878049 52.3060208,81.5058537 52.0268854,80.8670732 C51.7609375,80.2590244 50.5235104,79.1987805 50.7125312,78.667561 C50.9015521,78.1582927 51.1631042,78.4282927 51.6576354,77.7236585 C51.8686354,77.425122 51.8290729,76.8368293 51.8686354,76.6260976 C52.1038125,75.2585366 57.1084688,71.3841463 59.3635312,70.4007317 C59.7745417,69.7465854 59.3723229,68.137561 59.0118646,67.8126829" id="Fill-18" fill="#1A1919"></path>
                    <path d="M23.9682812,65.2531707 C24.3858854,67.4943902 27.6739688,71.7902439 28.0036562,74.7009756 C28.0805833,75.3265854 28.2520208,77.4536585 28.2696042,78.092439 C28.3091667,79.3787805 28.1465208,82.0809756 27.008,82.6341463 C26.3903854,82.9370732 23.7418958,84.8117073 23.1968125,86.5304878 C24.0408125,87.6741463 27.90475,87.0068293 27.90475,87.0068293 C28.6344583,86.804878 28.7949063,85.1673171 28.7949063,85.1673171 C28.1113542,83.2729268 29.6059375,83.2114634 29.8059479,83.2114634 L29.8279271,83.2114634 C32.4038854,82.4541463 30.4587292,79.837561 30.4587292,79.837561 C30.1070625,78.1736585 30.3136667,70.6970732 30.3136667,70.6970732 C30.9027083,68.4602439 29.2235,65.6087805 29.7092396,62.9768293 C27.6475937,63.5541463 26.8409583,63.9404878 23.9682812,65.2531707" id="Fill-19" fill="#1A1919"></path>
                    <path d="M74.3577188,39.9917073 C74.6808125,40.2265854 75.1731458,40.6041463 75.1731458,40.6041463 C86.8243021,40.0246341 85.9912917,55.9195122 85.9868958,56.6614634 L92.9586875,54.2643902 C86.8243021,34.1219512 77.779875,37.7526829 74.3577188,39.9917073" id="Fill-20" fill="#1A1919"></path>
                    <path d="M21.548375,49.7709756 L21.548375,49.7709756 C21.5307917,49.7709756 21.522,49.7709756 21.522,49.7709756 L21.548375,49.7709756" id="Fill-21" fill="#1A1919"></path>
                    <path d="M21.548375,49.7709756 L21.5615625,49.7709756" id="Fill-22" fill="#1A1919"></path>
                    <path d="M77.1952292,78.8739024 C75.0654479,72.4553659 75.9709896,69.757561 75.96,69.5819512 C71.7905521,67.6831707 69.1882187,66.302439 66.3551042,63.3236585 C66.3441146,63.332439 66.2781771,63.2578049 66.2781771,63.2578049 C66.3045521,63.2709756 65.2055937,64.7812195 65.4495625,66.392439 C67.282625,67.4395122 68.8541354,68.2582927 68.8541354,68.2582927 C72.5378437,70.5258537 73.4301979,73.7373171 73.4301979,73.7373171 C74.9028021,79.1614634 74.1599062,80.5290244 74.1599062,80.5290244 C73.7488958,81.925122 73.1136979,82.8734146 73.1136979,82.8734146 C72.5927917,83.7229268 72.0147396,84.5153659 72.0147396,84.5153659 C70.6498333,86.4097561 70.7992917,86.6556098 70.7992917,86.6556098 C71.871875,87.5731707 75.3313958,86.984878 75.9709896,86.3373171 C76.2896875,86.0278049 76.1600104,85.2046341 75.933625,84.9829268 C74.5863021,83.6790244 76.2457292,82.8229268 76.2457292,82.8229268 C78.3711146,81.9207317 77.1952292,78.8739024 77.1952292,78.8739024" id="Fill-23" fill="#1A1919"></path>
                    <path d="M19.5306875,22.7380488 C19.7790521,21.9763415 20.09775,21.1992683 20.0537917,19.9656098 C20.0406042,19.6056098 20.018625,19.4585366 19.9504896,19.1929268 C19.3196875,19.322439 16.4645937,17.9592683 15.1304583,16.4358537 C14.9788021,16.4929268 15.3876146,18.3873171 15.5546562,18.7956098 C15.9920417,19.8756098 16.7525208,20.0556098 16.7525208,20.0556098 C16.7525208,20.0556098 15.2381562,20.7580488 14.743625,21.3068293 C15.1436458,21.337561 17.6580625,21.1817073 19.5306875,22.7380488" id="Fill-24" fill="#1A1919"></path>
                    <path d="M12.7523125,33.5182927 L12.8644062,33.5995122 C14.2534896,32.5612195 16.1524896,29.5012195 16.2667812,29.0490244 L14.2117292,27.854878 C14.163375,27.8241463 14.1435937,27.764878 14.1677708,27.7121951 C15.1985937,25.5302439 16.0953437,24.0463415 16.0953437,24.0463415 C16.1217187,23.7939024 18.4229375,25.2163415 18.4229375,25.2163415 C18.7746042,24.4107317 18.8383437,24.2658537 19.0141771,23.7543902 C17.8778542,22.7139024 15.0447396,22.5119512 14.1084271,22.4219512 C13.4688333,23.4712195 12.3566875,25.4863415 12.2533854,26.7814634 C12.1171146,28.4102439 10.0686563,31.4460976 10.2225104,31.7117073 L12.7523125,33.5182927" id="Fill-25" fill="#1A1919"></path>
                    <path d="M9.37851042,32.695122 C9.38730208,32.8004878 8.93892708,33.3843902 8.63121875,34.0231707 C8.42461458,34.4556098 8.73891667,34.5939024 8.56528125,35.0702439 C7.51907292,38.0226829 11.4291667,38.7865854 12.9457292,37.0502439 C13.0951875,36.8746341 13.635875,36.7714634 13.8886354,36.6463415 C14.40075,36.3895122 14.1853542,36.0382927 14.1348021,35.9921951 L9.37851042,32.695122" id="Fill-26" fill="#1A1919"></path>
                    <path d="M33.9490208,27.5365854 C34.6589479,29.132439 36.02825,34.3458537 38.2217708,36.5365854 C40.1185729,38.3409756 41.9340521,38.1829268 41.9340521,38.1829268 L41.9296563,37.8865854 C36.4612396,32.695122 39.7669062,17.0417073 25.1661458,15.9221951 C20.1746771,15.5358537 18.8779062,17.2304878 18.8823021,17.3204878 L20.2120417,17.882439 C29.7048437,17.0878049 32.5027917,24.3163415 33.9490208,27.5365854" id="Fill-27" fill="#1A1919"></path>
                    <g id="Group-31" transform="translate(0.000000, 18.756098)" fill="#1A1919">
                        <path d="M32.494,10.2292683 C30.9532604,6.73463415 27.3376875,0.0987804878 21.7923437,0.467560976 C22.2605,5.00707317 17.9240104,12.5363415 14.4513021,15.7478049 L15.0952917,16.2526829 C16.7788958,14.3714634 18.2295208,13.607561 20.3329271,12.8568293 C21.7373958,12.3607317 22.5176562,10.7868293 22.5176562,10.7868293 C25.9134375,14.6326829 22.7330521,25.9309756 22.2780833,29.862439 C29.8762812,26.2470732 34.2501354,22.4560976 38.0107708,19.4597561 C34.4941042,17.0429268 33.3489896,12.167561 32.494,10.2292683" id="Fill-28"></path>
                        <path d="M1.92097917,7.31853659 C2.14516667,6.8202439 3.18697917,5.72707317 3.53425,5.48341463 C2.79355208,5.10585366 0.967083333,4.08512195 0.01978125,3.98634146 L0.00659375,3.98195122 C-0.109895833,5.15853659 1.53854167,6.42731707 1.92097917,7.31853659" id="Fill-30"></path>
                    </g>
                    <path d="M130.417781,52.8353659 C131.327719,55.0568293 132.723396,56.7712195 134.376229,58.2639024 C136.479635,60.1758537 138.620406,61.2141463 141.75024,62.1009756 L141.75024,45.692439 L128.901219,45.692439 C128.971552,48.1882927 129.545208,50.7104878 130.417781,52.8353659" id="Fill-32" fill="#1A1919"></path>
                    <path d="M161.008385,45.692439 L161.008385,62.2941463 C162.489781,61.7914634 160.788594,62.3336585 162.42824,61.8309756 C166.435042,53.162439 169.353875,49.3582927 174.921198,45.692439 C174.470625,45.692439 163.399719,45.692439 161.008385,45.692439" id="Fill-33" fill="#1A1919"></path>
                    <path d="M164.065687,62.7046341 L163.949198,62.7617073 C155.010271,65.8260976 145.658135,64.88 141.457917,63.5585366 C138.506115,62.6278049 135.930156,61.4204878 133.850927,59.7434146 C131.747521,58.0443902 130.129854,55.9392683 129.048479,53.4785366 C127.940729,50.9717073 127.382458,48.0719512 127.382458,44.8692683 L127.386854,44.2019512 L141.75024,44.2019512 L141.72826,22.0180488 L160.977615,21.9631707 L160.977615,44.2019512 L176.690521,44.1843902 L177.475177,45.4795122 C176.771844,45.9207317 167.413115,52.0956098 164.065687,62.7046341 Z M154.194844,71.3029268 C154.153083,71.5070732 154.01901,71.5685366 153.955271,71.5839024 L149.684719,71.5926829 C149.60999,71.5773171 149.438552,71.5246341 149.420969,71.2853659 C149.420969,71.2634146 149.420969,71.2502439 149.412177,71.2370732 L149.306677,65.9907317 C150.229802,66.0807317 153.350844,66.0104878 154.41024,65.9204878 L154.194844,71.3029268 Z M132.472833,23.9826829 C133.2465,23.9826829 133.297052,23.2758537 133.297052,23.2758537 C133.297052,23.2758537 133.384969,22.8456098 133.804771,22.8456098 C134.250948,22.8456098 134.332271,23.2758537 134.332271,23.2758537 C134.332271,23.2758537 134.345458,23.9826829 135.130115,23.9826829 L136.552167,23.9958537 L135.881802,32.6007317 L135.57849,32.6007317 C134.60701,32.6007317 134.294906,33.4656098 134.294906,33.4656098 L134.119073,34.5258537 L133.490469,34.5258537 L133.305844,33.4656098 C133.305844,33.4656098 133.006927,32.5656098 132.011271,32.5831707 L131.70576,32.5831707 L130.998031,23.9826829 L132.472833,23.9826829 Z M179.591771,25.1878049 L183.52824,25.1878049 L182.897438,32.947561 L180.068719,32.947561 L179.591771,25.1878049 Z M113.46525,52.8068293 L113.460854,52.802439 C113.019073,51.6390244 111.564052,47.0402439 111.284917,46.2543902 C110.902479,45.187561 109.563948,42.3141463 109.12876,42.0880488 C109.018865,42.0287805 108.62324,42.3185366 108.62324,42.3185366 C108.62324,42.3185366 107.064917,41.1353659 107.746271,40.1717073 C108.383667,39.2760976 113.605917,39.8534146 114.337823,39.8160976 C114.337823,39.8160976 115.280729,50.6534146 113.46525,52.8068293 Z M108.829844,53.8604878 C108.475979,54.5673171 106.231906,54.7319512 106.352792,55.412439 C106.390156,55.6736585 106.456094,55.9019512 106.471479,56.0687805 C103.844969,55.807561 101.218458,53.8692683 98.6425,51.4897561 C98.8139375,51.3097561 99.1480208,50.9541463 99.2733021,50.804878 C100.088729,49.8609756 103.524073,46.0326829 104.084542,45.4114634 C104.258177,45.2139024 104.488958,44.9131707 104.746115,44.5531707 C105.515385,45.6243902 107.412187,48.2563415 107.906719,48.8029268 C108.750719,49.7160976 109.210083,51.8673171 109.304594,52.2997561 C109.399104,52.7343902 109.018865,53.4829268 108.829844,53.8604878 Z M180.956677,43.9868293 C180.163229,44.072439 179.334615,44.017561 178.930198,43.9539024 C177.798271,43.7717073 176.791625,42.5885366 176.809208,41.1880488 C176.813604,40.8565854 176.826792,32.552439 176.853167,29.384878 L178.699417,29.384878 L178.998333,34.2295122 L179.415937,34.2295122 C180.62699,34.2295122 180.862167,35.4039024 180.862167,35.4039024 L181.099542,36.8263415 L181.831448,36.8263415 L182.060031,35.4039024 C182.060031,35.4039024 182.20949,34.2295122 183.510656,34.2295122 L183.919469,34.2295122 L184.871167,22.6963415 L183.244708,22.6963415 C182.05124,22.6963415 182.05124,21.7480488 182.05124,21.7480488 C182.05124,21.7480488 182.05124,21.175122 181.46,21.175122 C180.901729,21.175122 180.870958,21.7480488 180.870958,21.7480488 C180.870958,21.7480488 180.870958,22.6963415 179.681885,22.6963415 L178.051031,22.6963415 L178.530177,27.9360976 L176.861958,27.9360976 C176.87075,26.5465854 176.908115,20.564878 176.908115,20.51 L176.908115,20.4660976 L177.646615,20.4660976 C177.681781,20.4419512 177.780687,20.3387805 177.848823,20.114878 C177.938937,19.8185366 177.83124,19.6604878 177.802667,19.6209756 C177.802667,19.6209756 167.832917,17.7178049 151.45624,17.7178049 C135.462,17.7178049 125.373562,19.6473171 125.373562,19.6473171 C125.351583,19.6868293 125.29224,19.8185366 125.334,20.077561 C125.38675,20.3519512 125.514229,20.4485366 125.549396,20.4660976 L126.224156,20.4660976 L126.224156,40.4921951 C126.224156,40.6217073 126.331854,43.6904878 125.549396,44.4982927 C125.424115,44.63 125.283448,44.6892683 125.125198,44.6936585 C124.454833,44.702439 122.900906,40.4109756 122.900906,40.4109756 L124.171302,40.4109756 C124.265812,40.4109756 124.399885,40.2573171 124.399885,39.9521951 C124.399885,39.6953659 124.252625,39.4692683 124.18449,39.4692683 L119.212802,39.4692683 C123.067948,38.7141463 123.496542,36.8219512 123.566875,34.9956098 C123.878979,26.9109756 123.369062,25.0165854 122.900906,22.6480488 C122.747052,21.8468293 121.936021,20.3168293 121.936021,20.3168293 L116.676406,27.3873171 L116.267594,30.0104878 L110.456302,30.4473171 L110.383771,33.2219512 L115.654375,33.2680488 L115.581844,33.6412195 C115.581844,33.6412195 112.194854,34.0319512 111.619,34.28 C111.572844,34.3019512 111.546469,34.6246341 111.542073,34.7870732 C109.933198,35.0087805 103.772437,35.9307317 103.376812,36.9602439 C102.92624,38.1565854 100.543698,42.7817073 100.233792,43.657561 C99.8403646,44.8363415 98.3413854,46.3970732 97.9941146,46.6626829 C97.3105625,47.1939024 95.6423437,46.9634146 94.818125,46.267561 C94.5389896,46.0326829 93.9235729,45.3807317 93.6752083,45.6331707 C93.4686042,45.835122 93.2707917,46.0019512 93.1389167,46.105122 C92.5366875,45.5343902 91.9410521,44.99 91.3498125,44.485122 C91.3410208,44.485122 91.1344167,44.3512195 90.941,44.6256098 C90.8113229,44.8056098 90.8860521,44.99 90.9014375,45.025122 C92.1300729,46.1095122 93.3587083,47.4221951 94.6576771,48.805122 C98.2688542,52.64 102.341594,56.96 107.218771,57.3463415 C102.394344,58.8126829 98.9677917,60.9309756 89.8508333,60.9309756 C78.8832292,60.9309756 67.4210937,56.0139024 60.5987604,51.6368293 C62.4625937,58.5931707 70.394875,64.8536585 73.0389687,66.284878 C76.6633333,68.2319512 78.9205937,68.93 80.2657187,72.4641463 C81.4108333,75.4736585 80.9910312,80.3687805 80.3294583,81.8834146 C79.8437187,83.0029268 78.3469375,85.0004878 78.1820937,85.2704878 C77.8941667,85.7380488 76.8699375,86.9256098 77.2172083,87.452439 C77.4699687,87.8387805 81.1844479,88.2273171 81.8658021,87.704878 C82.0855937,87.5292683 82.34275,86.3504878 82.1669167,86.0278049 C82.0592187,85.8236585 81.7932708,85.6721951 81.6899687,85.4636585 C81.3163229,84.6865854 82.1757083,84.0697561 82.6130937,84.1202439 C83.8703021,84.2629268 84.1032812,83.0534146 83.9340417,82.4585366 C82.9427812,78.847561 83.1537812,70.2558537 83.1537812,70.2558537 C83.2834583,68.8443902 83.1186146,67.4395122 81.8196458,66.9587805 C80.7272812,66.554878 75.6764687,62.5246341 75.7577917,59.9409756 C77.8348229,60.6653659 82.9471771,62.0504878 89.83325,62.0504878 C103.510885,62.0504878 106.768198,56.7295122 118.256708,56.7295122 C127.82424,56.7295122 136.47524,65.9512195 148.392344,65.9512195 L148.190135,71.3182927 C148.146177,71.5158537 147.996719,71.5839024 147.928583,71.5926829 L143.115146,71.5926829 C143.115146,71.5926829 143.011844,71.7529268 143.011844,71.9373171 C143.011844,72.0909756 143.141521,72.2797561 143.141521,72.2797561 C143.141521,72.2797561 143.708583,72.6946341 143.902,72.6946341 C145.609781,72.6946341 157.590625,72.6946341 159.298406,72.6946341 C159.491823,72.6946341 160.067677,72.2797561 160.067677,72.2797561 C160.067677,72.2797561 160.170979,72.0909756 160.170979,71.9373171 C160.170979,71.7529268 160.067677,71.5926829 160.067677,71.5926829 L155.698219,71.5926829 C155.630083,71.5773171 155.441062,71.5114634 155.427875,71.2634146 L155.427875,71.2370732 L155.30699,65.8787805 C161.544677,65.3717073 164.966833,63.6660976 165.26575,63.512439 C165.261354,63.5278049 168.615375,52.1285366 178.290604,46.6582927 C181.569896,44.8012195 184.842594,44.324878 189.442833,44.0592683 C189.442833,44.0592683 189.616469,43.9956098 189.616469,43.6268293 C189.616469,43.3173171 189.464812,43.2119512 189.464812,43.2119512 C186.189917,43.2119512 181.695177,43.91 180.956677,43.9868293 L180.956677,43.9868293 Z" id="Fill-34" fill="#1A1919"></path>
                    <g id="Group-38" transform="translate(131.875000, 25.341463)">
                        <mask id="mask-2" fill="white">
                            <use xlink:href="#path-1"></use>
                        </mask>
                        <g id="Clip-36"></g>
                        <polyline id="Fill-35" fill="#1A1919" mask="url(#mask-2)" points="2.71003125 6.31097561 3.18258333 0.377560976 0.654979167 0.377560976 1.07917708 6.31097561 2.71003125 6.31097561"></polyline>
                        <path d="M55.1171562,41.4768293 C55.1765,41.544878 55.1896875,41.6217073 55.1896875,41.6809756 L55.1896875,41.6941463 L55.1852917,41.7073171 C55.1852917,41.7204878 55.1852917,41.742439 55.1743021,41.7621951 L55.1743021,41.7797561 C55.1699062,41.8017073 55.1655104,41.8192683 55.1567187,41.832439 L55.1567187,41.8412195 L55.1391354,41.8521951 C55.1171562,41.8960976 55.0907812,41.922439 55.0622083,41.9465854 L55.0314375,41.9685366 C55.0138542,41.9817073 54.9962708,41.9904878 54.9808854,41.9992683 C54.9413229,42.0168293 54.9105521,42.0256098 54.8731875,42.0256098 L54.8292292,42.0278049 L38.533875,42.2121951 C38.5118958,42.174878 38.5053021,42.1353659 38.5009062,42.102439 L38.4965104,42.0673171 C38.6503646,37.4839024 40.4526562,33.1068293 43.5780937,29.7373171 C43.5912812,29.7285366 43.6000729,29.7241463 43.6044687,29.7241463 L55.0578125,41.4109756 L55.0907812,41.4504878 L55.0863854,41.454878 L55.1171562,41.4768293 Z M55.0534167,44.2492683 L43.7407396,55.8 C43.7077708,55.7912195 43.6726042,55.7736585 43.650625,55.7473171 L43.6462292,55.7473171 C40.5295833,52.4173171 38.7053125,48.0907317 38.5053021,43.56 L38.5250833,43.56 L38.5053021,43.5073171 C38.5053021,43.5073171 38.5096979,43.4831707 38.5096979,43.4656098 L54.8292292,43.65 L54.8731875,43.65 C55.044625,43.6587805 55.1852917,43.8036585 55.1852917,43.9792683 C55.1852917,44.0363415 55.1655104,44.082439 55.1347396,44.1373171 L55.1171562,44.172439 C55.1171562,44.172439 55.0995729,44.1987805 55.0863854,44.207561 L55.0534167,44.2492683 Z M56.8249375,40.0785366 L56.8227396,40.1158537 C56.8227396,40.1992683 56.7831771,40.2629268 56.7480104,40.3046341 L56.732625,40.3134146 C56.6974583,40.3485366 56.6535,40.3792683 56.6073437,40.3946341 L56.5677812,40.3990244 C56.4820625,40.4253659 56.4139271,40.4209756 56.3194167,40.3660976 C56.2886458,40.3529268 56.2754583,40.3397561 56.2644687,40.3265854 L56.2336979,40.3134146 L56.2293021,40.3134146 L44.4968229,28.8460976 C44.5056146,28.8153659 44.5231979,28.7934146 44.5363854,28.7802439 C47.9145833,25.6039024 52.3236042,23.7687805 56.9370312,23.6107317 C56.9634062,23.6107317 56.9853854,23.615122 57.0095625,23.6239024 L56.8249375,40.0785366 Z M56.1567708,45.4280488 L56.2029271,45.3819512 L56.2336979,45.36 C56.2424896,45.3468293 56.2600729,45.3380488 56.2798542,45.3204878 C56.28425,45.3204878 56.2886458,45.3182927 56.2930417,45.3139024 L56.3150208,45.3007317 C56.3282083,45.3007317 56.3413958,45.2963415 56.3545833,45.2919512 L56.3743646,45.287561 L56.4139271,45.2787805 C56.4227188,45.2743902 56.4271146,45.2743902 56.4271146,45.2743902 C56.4490938,45.27 56.4534896,45.27 56.4534896,45.27 C56.6381146,45.27 56.7875729,45.414878 56.7919687,45.6036585 L56.9721979,61.7882927 C56.9590104,61.7926829 56.9414271,61.7970732 56.9414271,61.7970732 C52.3741563,61.6346341 48.0134896,59.8390244 44.6506771,56.7439024 C44.6506771,56.7439024 44.6308958,56.7131707 44.6177083,56.6956098 L56.1567708,45.4280488 Z M60.3965521,42.0673171 L60.3965521,42.0673171 C60.3855625,42.0673171 60.3811667,42.0673171 60.3811667,42.0673171 C60.18775,42.0717073 60.0316979,41.922439 60.0316979,41.742439 C60.0316979,41.6480488 60.0800521,41.5536585 60.1525833,41.4921951 L71.6586771,29.7417073 C71.6696667,29.7460976 71.6784583,29.754878 71.6784583,29.754878 C74.8038958,33.1507317 76.6039896,37.5409756 76.7358646,42.1309756 C76.7358646,42.1704878 76.7226771,42.21 76.7006979,42.2473171 L60.3965521,42.0673171 Z M71.4652604,55.8263415 L60.1789583,44.3019512 L60.1393958,44.262439 L60.1437917,44.2580488 L60.1196146,44.2317073 C60.0712604,44.1856098 60.0448854,44.1219512 60.0404896,44.0429268 C60.0404896,44.0363415 60.0404896,44.0319512 60.0404896,44.0319512 C60.0316979,43.8387805 60.1789583,43.6873171 60.3635833,43.6829268 L76.7270729,43.4941463 L76.7314688,43.5073171 C76.5380521,48.077561 74.7005938,52.434878 71.5509792,55.7780488 C71.529,55.7956098 71.502625,55.8131707 71.4652604,55.8263415 Z M58.4052396,45.6431707 L58.4140312,45.6431707 L58.4140312,45.6036585 C58.4140312,45.5707317 58.4228229,45.5312195 58.4360104,45.5026829 L58.4404062,45.4939024 C58.4535937,45.4631707 58.4667812,45.4412195 58.4865625,45.4236585 L58.49975,45.4082927 C58.5041458,45.3995122 58.5129375,45.395122 58.5129375,45.395122 L58.526125,45.3819512 C58.5349167,45.3731707 58.5481042,45.3643902 58.5612917,45.3556098 L58.5722812,45.3468293 C58.5722812,45.3468293 58.6074479,45.3204878 58.6250312,45.3182927 L58.658,45.3095122 C58.658,45.3095122 58.6755833,45.305122 58.684375,45.305122 C58.7283333,45.2919512 58.7613021,45.2919512 58.8052604,45.305122 L58.8316354,45.3139024 C58.8360313,45.3139024 58.8470208,45.3139024 58.8514167,45.3182927 C58.8865833,45.324878 58.9085625,45.3468293 58.9327396,45.36 C58.9327396,45.36 58.9503229,45.3731707 58.9679063,45.3819512 L59.0030729,45.4039024 L70.5926875,56.7263415 C70.5926875,56.7307317 70.5882917,56.735122 70.5882917,56.735122 C67.2188854,59.8434146 62.8450313,61.6434146 58.2821562,61.8014634 C58.2601771,61.7970732 58.2425937,61.7926829 58.2206146,61.7882927 L58.4052396,45.6431707 Z M70.7003854,28.7758537 C70.7267604,28.8021951 70.7443437,28.8329268 70.7553333,28.8746341 L59.0580208,40.3046341 L59.02725,40.3265854 L59.0228542,40.3221951 L58.9942813,40.3529268 C58.9085625,40.4385366 58.7744896,40.4560976 58.6667917,40.3990244 L58.6338229,40.3946341 L58.5942604,40.3573171 L58.5810729,40.3485366 L58.5722812,40.3353659 C58.5656875,40.3353659 58.5612917,40.3309756 58.5568958,40.3221951 L58.5393125,40.3134146 L58.526125,40.3046341 C58.4909583,40.2673171 58.4535937,40.2058537 58.4535937,40.1158537 L58.4448021,40.0785366 L58.2601771,23.6239024 C58.2821562,23.615122 58.3019375,23.6107317 58.3195208,23.6107317 C62.9131667,23.7731707 67.3002083,25.6039024 70.6696146,28.7473171 L70.6696146,28.7517073 L70.7003854,28.7758537 Z M57.6161875,21.7492683 C57.5942083,21.7492683 57.5678333,21.7536585 57.5436562,21.7536585 C57.5260729,21.7536585 57.5084896,21.7536585 57.4909062,21.7536585 C51.9147917,21.7843902 46.6727604,23.9795122 42.7362917,27.9329268 C38.8042187,31.8841463 36.6326771,37.1282927 36.6326771,42.7060976 C36.6326771,48.1170732 38.7009167,53.2580488 42.4483646,57.1763415 C42.7121146,57.4507317 42.9824583,57.7119512 43.2528021,57.977561 C47.1628958,61.6434146 52.2664583,63.6585366 57.6161875,63.6585366 C69.1860208,63.6541463 78.5996979,54.2568293 78.5996979,42.7060976 C78.5996979,31.1465854 69.1860208,21.7492683 57.6161875,21.7492683 L57.6161875,21.7492683 Z" id="Fill-37" fill="#1A1919" mask="url(#mask-2)"></path>
                    </g>
                    <path d="M97.0885729,16.4446341 C91.152,14.0190244 85.0088229,11.51 82.7163958,8.17121951 C81.2393958,6.01780488 80.7250833,3.99829268 81.3383021,2.76463415 C81.6767813,2.08195122 82.34275,1.68902439 83.265875,1.64512195 C83.3208229,1.64512195 83.3735729,1.64512195 83.4285208,1.64512195 C87.5540104,1.64512195 92.5125104,7.21853659 95.4906875,11.995122 C95.4994792,12.0126829 95.5126667,12.0214634 95.5214583,12.0302439 L95.53025,12.0368293 L98.7589896,17.1273171 C98.2095104,16.8990244 97.6556354,16.6729268 97.0885729,16.4446341 Z M110.060677,23.5743902 C108.275969,21.4012195 104.699958,19.61 99.8623438,17.5860976 L96.1478646,11.725122 C96.1390729,11.6768293 96.1214896,11.6395122 96.1061042,11.6087805 C93.8290625,7.97365854 91.4509167,5.18146341 89.0310104,3.30902439 C87.0396979,1.7702439 85.0549792,0.916341463 83.4417083,0.916341463 C83.3691771,0.916341463 83.3032396,0.920731707 83.2307083,0.925121951 C82.0460312,0.984390244 81.1448854,1.52 80.6899167,2.44195122 C79.9470208,3.93463415 80.470125,6.17365854 82.1185625,8.57292683 C84.5406667,12.1026829 90.78275,14.6446341 96.8182292,17.1141463 C97.7061875,17.4741463 98.6073333,17.8341463 99.4051771,18.152439 L107.159427,30.374878 C106.278063,30.3880488 105.267021,30.3112195 105.442854,30.7985366 C105.623083,31.2968293 106.348396,30.7985366 106.656104,31.7292683 C107.12426,33.1407317 109.763958,32.875122 109.763958,32.875122 L109.069417,30.3573171 C109.069417,30.3573171 108.537521,30.3704878 107.952875,30.3704878 L100.48875,18.5804878 C104.809854,20.2904878 108.245198,21.7656098 109.86726,23.7456098 C109.893635,23.7763415 109.933198,23.7939024 109.974958,23.7939024 C110.032104,23.7939024 110.073865,23.7631707 110.095844,23.7258537 C110.109031,23.6995122 110.120021,23.6446341 110.060677,23.5743902 L110.060677,23.5743902 Z" id="Fill-39" fill="#1A1919"></path>
                    <g id="Group-43" transform="translate(103.302083, 12.170732)">
                        <mask id="mask-4" fill="white">
                            <use xlink:href="#path-3"></use>
                        </mask>
                        <g id="Clip-41"></g>
                        <path d="M14.4513021,13.787561 L14.8601146,10.2556098 L15.3018958,9.74853659 L15.1480417,8.44682927 L18.2690833,7.12536585 C18.1350104,6.7697561 18.1481979,6.60292683 18.4954688,6.27585366 C18.7438333,6.04097561 19.9416979,4.80512195 19.9944479,4.5702439 C20.4230417,2.53756098 17.5767396,1.23804878 15.6447708,1.58268293 C15.0271563,1.69243902 13.4600417,1.85707317 12.5237292,1.56512195 C12.2709687,1.48829268 11.8116042,1.46195122 11.8116042,1.46195122 L11.5236771,1.88560976 C11.6225833,2.02390244 12.8600104,3.52317073 13.2886042,4.11146341 C13.7523646,4.55707317 12.2445937,5.98170732 12.6709896,6.10463415 C12.7764896,6.14414634 13.0512292,6.17707317 13.0776042,6.2297561 C13.1127708,6.2802439 13.0446354,6.68414634 13.0358438,6.80487805 C13.0358438,6.89926829 13.2534375,6.8904878 13.2886042,6.97609756 C13.3347604,7.09902439 13.2534375,7.93536585 13.4116875,8.00341463 C13.7391771,8.14170732 14.8820938,8.41170732 14.8820938,8.41170732 C14.9106667,8.50609756 14.8776979,8.57853659 14.8557188,8.64 C14.8557188,8.64 13.5237812,8.85292683 14.0446875,9.54878049 C14.3062396,9.9 14.6996667,9.97682927 14.5502083,10.1085366 C14.40075,10.2468293 13.7655521,10.512439 13.8798437,11.5507317 C13.97875,12.4243902 13.9875417,13.6734146 14.2249167,14.1014634 L14.4513021,13.787561" id="Fill-40" fill="#1A1919" mask="url(#mask-4)"></path>
                        <path d="M2.09241667,62.3129268 L12.8116562,62.4973171 L12.8512187,62.4973171 C12.9786979,62.5060976 13.082,62.6158537 13.082,62.7453659 C13.082,62.7892683 13.0688125,62.8221951 13.0402396,62.8704878 L13.0314479,62.8902439 C13.0226563,62.8946341 13.0182604,62.9078049 13.0182604,62.9078049 L5.53875,70.6478049 C5.49259375,70.6807317 5.43764583,70.6982927 5.3805,70.6982927 C5.37610417,70.6982927 5.37170833,70.6982927 5.37170833,70.6982927 C3.27709375,68.435122 2.05065625,65.502439 1.90339583,62.4402439 C1.94735417,62.3678049 2.01109375,62.3260976 2.09241667,62.3129268 Z M13.0314479,60.8114634 C13.0776042,60.8597561 13.0863958,60.9190244 13.0863958,60.9607317 L13.0863958,60.9739024 C13.082,60.9870732 13.082,61.0002439 13.0776042,61.0221951 L13.0732083,61.0353659 C13.0688125,61.0485366 13.0688125,61.0595122 13.0688125,61.0595122 L13.0468333,61.0902439 C13.0358438,61.1165854 13.0226563,61.1341463 13.0006771,61.1495122 L12.9874896,61.1626829 L12.9743021,61.1714634 C12.9611146,61.1846341 12.950125,61.1934146 12.9325417,61.2021951 C12.9017708,61.2153659 12.8797917,61.2197561 12.8512187,61.2197561 L2.09241667,61.4085366 C2.01109375,61.3953659 1.94295833,61.3426829 1.899,61.2746341 C1.9649375,59.6919512 2.30341667,58.1531707 2.91223958,56.7131707 C3.48809375,55.3807317 4.27275,54.1536585 5.2618125,53.0692683 C5.35632292,53.0121951 5.47940625,53.0209756 5.5519375,53.0780488 L12.9874896,60.7565854 L13.0050729,60.7807317 L13.0006771,60.7807317 L13.0314479,60.8114634 Z M14.3611875,59.705122 L14.3567917,59.7490244 C14.3567917,59.8039024 14.3326146,59.8521951 14.3062396,59.8807317 L14.2886562,59.8939024 C14.2578854,59.9202439 14.2337083,59.9465854 14.1941458,59.957561 L14.1721667,59.957561 C14.0996354,59.9795122 14.0490833,59.975122 13.9743542,59.9334146 C13.9589687,59.9246341 13.9457812,59.9158537 13.9325937,59.9070732 L13.9018229,59.8807317 L6.19592708,52.4480488 C6.12779167,52.3536585 6.12779167,52.2373171 6.18273958,52.1473171 C8.42461458,50.1278049 11.3126771,48.9314634 14.3150312,48.7778049 C14.4293229,48.7909756 14.5238333,48.8853659 14.5458125,48.995122 L14.3611875,59.705122 Z M6.17175,71.2821951 L13.8556667,63.8780488 L13.8798437,63.8517073 L13.9106146,63.8253659 C13.9194062,63.8165854 13.9281979,63.8078049 13.9413854,63.8034146 L13.9501771,63.7990244 C13.9545729,63.7968293 13.9589687,63.792439 13.9589687,63.792439 L13.9699583,63.7792683 C13.9831458,63.7792683 13.9875417,63.774878 13.9963333,63.774878 L14.0139167,63.7704878 C14.0227083,63.7704878 14.0315,63.7660976 14.0446875,63.7617073 C14.0446875,63.7617073 14.057875,63.7617073 14.0644688,63.7573171 L14.0776563,63.7573171 C14.216125,63.7573171 14.3326146,63.864878 14.3326146,64.0009756 L14.5150417,74.7417073 C14.5084479,74.8053659 14.4732813,74.862439 14.4249271,74.9041463 C11.3434479,74.7680488 8.39823958,73.5409756 6.12339583,71.4446341 C6.12339583,71.3853659 6.14097917,71.3239024 6.17175,71.2821951 Z M27.8717813,61.4326829 L17.1393542,61.2526829 L17.117375,61.2526829 C16.9811042,61.2526829 16.8690104,61.1429268 16.8690104,61.0046341 C16.8690104,60.9365854 16.8975833,60.8685366 16.9547292,60.8202439 L24.4188542,53.0978049 C24.5045729,53.0341463 24.6430417,53.0429268 24.7155729,53.0868293 C26.7376562,55.3192683 27.9443125,58.2058537 28.089375,61.1978049 C28.0805833,61.3185366 27.9904687,61.4173171 27.8717813,61.4326829 Z M24.4100625,70.6719512 L16.9723125,62.9846341 L16.9547292,62.9692683 L16.959125,62.964878 L16.93275,62.9341463 C16.8953854,62.8946341 16.8734062,62.8485366 16.8734062,62.7914634 L16.8690104,62.7760976 C16.8690104,62.6421951 16.9723125,62.5302439 17.1129792,62.5258537 L27.8717813,62.3370732 C27.9816771,62.3546341 28.0717917,62.4490244 28.089375,62.5565854 C27.9706875,64.9317073 27.1970208,67.2256098 25.8716771,69.1902439 C25.5134167,69.7082927 25.1111979,70.2131707 24.6562292,70.7026829 C24.5749063,70.7378049 24.4716042,70.7202439 24.4100625,70.6719512 Z M15.6030104,64.0404878 L15.6074063,64.0404878 L15.6074063,64.0009756 C15.6074063,63.9790244 15.614,63.954878 15.6183958,63.9373171 L15.6271875,63.9241463 C15.6359792,63.9021951 15.6447708,63.8890244 15.6579583,63.8736585 L15.6711458,63.864878 C15.6755417,63.8560976 15.6799375,63.8517073 15.6799375,63.8517073 L15.6887292,63.8385366 C15.6975208,63.8341463 15.7085104,63.8297561 15.7173021,63.8165854 C15.7348854,63.8078049 15.7524688,63.7990244 15.7656563,63.792439 L15.8118125,63.7836585 C15.8425833,63.774878 15.8645625,63.774878 15.9019271,63.7836585 L15.9195104,63.792439 L15.9370937,63.792439 C15.9634687,63.8034146 15.9810521,63.8165854 15.9964375,63.8297561 C15.9964375,63.8297561 16.009625,63.8385366 16.0228125,63.8385366 L16.0535833,63.8692683 L23.7660729,71.297561 C23.8188229,71.3721951 23.8320104,71.4665854 23.8012396,71.5521951 C21.522,73.6002439 18.5767917,74.7921951 15.5041042,74.9041463 C15.45575,74.862439 15.4271771,74.8053659 15.4183854,74.7504878 L15.6030104,64.0404878 Z M23.7880521,52.4590244 L16.0711667,59.9026829 L16.0667708,59.8982927 L16.0403958,59.9290244 C15.98325,59.9882927 15.87775,60.0014634 15.798625,59.9619512 L15.7744479,59.957561 L15.7480729,59.9290244 L15.7260938,59.9114634 C15.7173021,59.9070732 15.7173021,59.9070732 15.7173021,59.9070732 C15.7085104,59.8982927 15.7085104,59.8982927 15.7085104,59.8982927 L15.693125,59.885122 C15.6623542,59.8609756 15.6315833,59.8082927 15.6315833,59.7490244 L15.4469583,49.0039024 C15.4601458,48.8853659 15.5546562,48.7953659 15.6755417,48.7778049 C18.6756979,48.9358537 21.5615625,50.1409756 23.7880521,52.1517073 C23.8495937,52.2504878 23.8495937,52.3734146 23.7880521,52.4590244 Z M14.954625,46.997561 C6.72122917,46.997561 0.01978125,53.6860976 0.01978125,61.9134146 C0.01978125,70.1407317 6.72122917,76.8292683 14.954625,76.8292683 C23.1880208,76.8292683 29.8938646,70.1407317 29.8938646,61.9134146 C29.8938646,53.6860976 23.1880208,46.997561 14.954625,46.997561 L14.954625,46.997561 Z" id="Fill-42" fill="#1A1919" mask="url(#mask-4)"></path>
                    </g>
                    <path d="M154.058573,46.8514634 C154.058573,47.5539024 153.792625,47.7295122 153.792625,47.7295122 L149.289094,47.7295122 C149.289094,47.7295122 149.064906,47.3826829 149.064906,46.8514634 C149.064906,46.6407317 149.064906,46.1490244 149.064906,46.1490244 L154.058573,46.1490244 C154.058573,46.1490244 154.058573,46.6978049 154.058573,46.8514634 Z M157.882948,44.3863415 C157.882948,44.3863415 155.581729,44.5180488 151.405687,44.5180488 C147.456031,44.5180488 144.816333,44.4039024 144.816333,44.4039024 L144.816333,24.9463415 L157.882948,24.9309756 L157.882948,44.3863415 Z M143.240427,23.5063415 L143.240427,62.5641463 C148.847312,64.0129268 155.920208,63.4860976 159.476437,62.612439 C159.476437,54.367561 159.472042,23.4843902 159.472042,23.4843902 L143.240427,23.5063415 L143.240427,23.5063415 Z" id="Fill-44" fill="#1A1919"></path>
                </g>
            </g>
        </g>
    </g>
</svg>